<svg width="17" height="17" viewBox="0 0 17 17" fill="none" xmlns="http://www.w3.org/2000/svg">
<path fill-rule="evenodd" clip-rule="evenodd" d="M10.5 1.96875C10.5 1.41647 10.9477 0.96875 11.5 0.96875C12.0523 0.96875 12.5 1.41647 12.5 1.96875V3.96875H14.5C15.0523 3.96875 15.5 4.41647 15.5 4.96875V14.9688C15.5 15.521 15.0523 15.9688 14.5 15.9688H2.5C1.94772 15.9688 1.5 15.521 1.5 14.9688V4.96875C1.5 4.41647 1.94772 3.96875 2.5 3.96875H4.5V1.96875C4.5 1.41647 4.94772 0.96875 5.5 0.96875C6.05228 0.96875 6.5 1.41647 6.5 1.96875V3.96875H10.5V1.96875ZM4.5 5.96875C4.5 6.52103 4.94772 6.96875 5.5 6.96875C6.05228 6.96875 6.5 6.52103 6.5 5.96875H10.5C10.5 6.52103 10.9477 6.96875 11.5 6.96875C12.0523 6.96875 12.5 6.52103 12.5 5.96875H13.5V7.96875H3.5V5.96875H4.5ZM3.5 9.96875V13.9688H13.5V9.96875H3.5Z" fill="#191B23"/>
</svg>
