<svg width="11" height="12" viewBox="0 0 11 12" fill="none" xmlns="http://www.w3.org/2000/svg">
<path d="M7.13258 6L10.0732 2.87281C10.4341 2.48906 10.4341 1.86687 10.0732 1.48281L9.4197 0.787813C9.05884 0.404063 8.47376 0.404063 8.11261 0.787813L5.17195 3.915L2.23128 0.787813C1.87042 0.404063 1.28535 0.404063 0.924191 0.787813L0.270646 1.48281C-0.0902152 1.86656 -0.0902152 2.48875 0.270646 2.87281L3.21131 6L0.270646 9.12719C-0.0902152 9.51094 -0.0902152 10.1331 0.270646 10.5172L0.924191 11.2122C1.28505 11.5959 1.87042 11.5959 2.23128 11.2122L5.17195 8.085L8.11261 11.2122C8.47347 11.5959 9.05884 11.5959 9.4197 11.2122L10.0732 10.5172C10.4341 10.1334 10.4341 9.51125 10.0732 9.12719L7.13258 6Z" fill="#E14B4B"/>
</svg>
