<svg width="13" height="14" viewBox="0 0 13 14" fill="none" xmlns="http://www.w3.org/2000/svg">
<g clip-path="url(#clip0_206_3331)">
<path d="M8.66668 9.16667L6.50001 7L4.33334 9.16667" stroke="#5F8DF8" stroke-width="2" stroke-linecap="round" stroke-linejoin="round"/>
<path d="M6.5 7V11.875" stroke="#5F8DF8" stroke-width="2" stroke-linecap="round" stroke-linejoin="round"/>
<path d="M11.0446 10.4611C11.5729 10.1731 11.9903 9.71737 12.2308 9.16581C12.4713 8.61425 12.5213 7.99831 12.3729 7.41518C12.2245 6.83205 11.8861 6.31496 11.4111 5.94551C10.9362 5.57605 10.3517 5.37529 9.75001 5.37489H9.06751C8.90356 4.74073 8.59797 4.15199 8.17373 3.65293C7.74949 3.15387 7.21763 2.75748 6.61815 2.49355C6.01866 2.22963 5.36714 2.10504 4.71257 2.12916C4.058 2.15328 3.41742 2.32547 2.83898 2.63279C2.26054 2.94011 1.75929 3.37457 1.37293 3.9035C0.986564 4.43242 0.725133 5.04205 0.60829 5.68656C0.491447 6.33107 0.522233 6.99368 0.698333 7.62457C0.874433 8.25547 1.19127 8.83823 1.62501 9.32906" stroke="#5F8DF8" stroke-width="2" stroke-linecap="round" stroke-linejoin="round"/>
<path d="M8.66668 9.16667L6.50001 7L4.33334 9.16667" stroke="#5F8DF8" stroke-width="2" stroke-linecap="round" stroke-linejoin="round"/>
</g>
<defs>
<clipPath id="clip0_206_3331">
<rect width="13" height="13" fill="white" transform="translate(0 0.5)"/>
</clipPath>
</defs>
</svg>
