<svg width="11" height="11" viewBox="0 0 11 11" fill="none" xmlns="http://www.w3.org/2000/svg">
<path d="M7.78874 5.5L10.7294 2.37281C11.0903 1.98906 11.0903 1.36687 10.7294 0.982812L10.0759 0.287813C9.715 -0.0959375 9.12992 -0.0959375 8.76877 0.287813L5.8281 3.415L2.88744 0.287813C2.52658 -0.0959375 1.9415 -0.0959375 1.58035 0.287813L0.926804 0.982812C0.565943 1.36656 0.565943 1.98875 0.926804 2.37281L3.86747 5.5L0.926804 8.62719C0.565943 9.01094 0.565943 9.63312 0.926804 10.0172L1.58035 10.7122C1.94121 11.0959 2.52658 11.0959 2.88744 10.7122L5.8281 7.585L8.76877 10.7122C9.12963 11.0959 9.715 11.0959 10.0759 10.7122L10.7294 10.0172C11.0903 9.63344 11.0903 9.01125 10.7294 8.62719L7.78874 5.5Z" fill="white"/>
</svg>
