<svg width="22" height="17" viewBox="0 0 22 17" fill="none" xmlns="http://www.w3.org/2000/svg">
<path d="M4.71429 10.3253H1.57143C0.703705 10.3253 0 11.029 0 11.8967V15.0396C0 15.9073 0.703705 16.611 1.57143 16.611H4.71429C5.58201 16.611 6.28571 15.9073 6.28571 15.0396V11.8967C6.28571 11.029 5.58201 10.3253 4.71429 10.3253ZM12.5714 10.3253H9.42857C8.56085 10.3253 7.85714 11.029 7.85714 11.8967V15.0396C7.85714 15.9073 8.56085 16.611 9.42857 16.611H12.5714C13.4392 16.611 14.1429 15.9073 14.1429 15.0396V11.8967C14.1429 11.029 13.4392 10.3253 12.5714 10.3253ZM20.4286 10.3253H17.2857C16.418 10.3253 15.7143 11.029 15.7143 11.8967V15.0396C15.7143 15.9073 16.418 16.611 17.2857 16.611H20.4286C21.2963 16.611 22 15.9073 22 15.0396V11.8967C22 11.029 21.2963 10.3253 20.4286 10.3253ZM4.71429 0.896729H1.57143C0.703705 0.896729 0 1.60043 0 2.46816V5.61101C0 6.47874 0.703705 7.18244 1.57143 7.18244H4.71429C5.58201 7.18244 6.28571 6.47874 6.28571 5.61101V2.46816C6.28571 1.60043 5.58201 0.896729 4.71429 0.896729ZM12.5714 0.896729H9.42857C8.56085 0.896729 7.85714 1.60043 7.85714 2.46816V5.61101C7.85714 6.47874 8.56085 7.18244 9.42857 7.18244H12.5714C13.4392 7.18244 14.1429 6.47874 14.1429 5.61101V2.46816C14.1429 1.60043 13.4392 0.896729 12.5714 0.896729ZM20.4286 0.896729H17.2857C16.418 0.896729 15.7143 1.60043 15.7143 2.46816V5.61101C15.7143 6.47874 16.418 7.18244 17.2857 7.18244H20.4286C21.2963 7.18244 22 6.47874 22 5.61101V2.46816C22 1.60043 21.2963 0.896729 20.4286 0.896729Z" fill="#D8D8D8"/>
</svg>
