<svg width="13" height="14" viewBox="0 0 13 14" fill="none" xmlns="http://www.w3.org/2000/svg">
<g clip-path="url(#clip0_5_34146)">
<path d="M8.66659 9.16667L6.49992 7L4.33325 9.16667" stroke="#5F8DF8" stroke-width="2" stroke-linecap="round" stroke-linejoin="round"/>
<path d="M6.5 7V11.875" stroke="#5F8DF8" stroke-width="2" stroke-linecap="round" stroke-linejoin="round"/>
<path d="M11.0446 10.4613C11.5729 10.1732 11.9903 9.71749 12.2308 9.16593C12.4713 8.61438 12.5213 7.99843 12.3729 7.4153C12.2245 6.83218 11.8861 6.31508 11.4112 5.94563C10.9362 5.57618 10.3518 5.37541 9.75004 5.37501H9.06754C8.90359 4.74085 8.598 4.15211 8.17376 3.65305C7.74952 3.15399 7.21766 2.7576 6.61818 2.49367C6.01869 2.22975 5.36717 2.10516 4.7126 2.12928C4.05803 2.1534 3.41745 2.32559 2.83901 2.63291C2.26057 2.94024 1.75932 3.37469 1.37296 3.90362C0.986595 4.43254 0.725163 5.04218 0.60832 5.68668C0.491477 6.33119 0.522263 6.9938 0.698363 7.62469C0.874464 8.25559 1.1913 8.83835 1.62504 9.32918" stroke="#5F8DF8" stroke-width="2" stroke-linecap="round" stroke-linejoin="round"/>
<path d="M8.66659 9.16667L6.49992 7L4.33325 9.16667" stroke="#5F8DF8" stroke-width="2" stroke-linecap="round" stroke-linejoin="round"/>
</g>
<defs>
<clipPath id="clip0_5_34146">
<rect width="13" height="13" fill="white" transform="translate(0 0.5)"/>
</clipPath>
</defs>
</svg>
