<svg width="13" height="12" viewBox="0 0 13 12" fill="none" xmlns="http://www.w3.org/2000/svg">
<g clip-path="url(#clip0_89_34144)">
<path d="M9.30664 1.49991C9.43796 1.36859 9.59386 1.26441 9.76544 1.19334C9.93703 1.12227 10.1209 1.08569 10.3066 1.08569C10.4924 1.08569 10.6763 1.12227 10.8478 1.19334C11.0194 1.26441 11.1753 1.36859 11.3066 1.49991C11.438 1.63123 11.5421 1.78713 11.6132 1.95871C11.6843 2.13029 11.7209 2.31419 11.7209 2.49991C11.7209 2.68562 11.6843 2.86952 11.6132 3.0411C11.5421 3.21268 11.438 3.36859 11.3066 3.49991L4.55664 10.2499L1.80664 10.9999L2.55664 8.24991L9.30664 1.49991Z" stroke="#6C6C6C" stroke-width="2" stroke-linecap="round" stroke-linejoin="round"/>
</g>
<defs>
<clipPath id="clip0_89_34144">
<rect width="12" height="12" fill="white" transform="translate(0.806641)"/>
</clipPath>
</defs>
</svg>
