<svg width="11" height="12" viewBox="0 0 11 12" fill="none" xmlns="http://www.w3.org/2000/svg">
<path d="M9.46767 4.62866C9.46767 4.62866 9.17355 8.27679 9.00293 9.81349C8.92168 10.5475 8.4683 10.9775 7.72568 10.9911C6.31247 11.0165 4.89763 11.0182 3.48497 10.9884C2.77051 10.9737 2.32472 10.5382 2.24509 9.81729C2.07338 8.26704 1.78088 4.62866 1.78088 4.62866" stroke="white" stroke-width="1.5" stroke-linecap="round" stroke-linejoin="round"/>
<path d="M10.217 2.87984H1.03137" stroke="white" stroke-width="1.5" stroke-linecap="round" stroke-linejoin="round"/>
<path d="M8.44706 2.87987C8.02185 2.87987 7.65569 2.57924 7.57227 2.1627L7.44064 1.50403C7.35939 1.20016 7.08423 0.98999 6.7706 0.98999H4.47773C4.1641 0.98999 3.88894 1.20016 3.80769 1.50403L3.67606 2.1627C3.59264 2.57924 3.22648 2.87987 2.80127 2.87987" stroke="white" stroke-width="1.5" stroke-linecap="round" stroke-linejoin="round"/>
</svg>
