<svg width="13" height="14" viewBox="0 0 13 14" fill="none" xmlns="http://www.w3.org/2000/svg">
<g clip-path="url(#clip0_206_1818)">
<path d="M12.4583 11.8749V10.7916C12.458 10.3115 12.2982 9.84515 12.0041 9.46573C11.7099 9.08632 11.2981 8.81533 10.8333 8.69531" stroke="#5F8DF8" stroke-width="2" stroke-linecap="round" stroke-linejoin="round"/>
<path d="M9.20835 11.875V10.7917C9.20835 10.217 8.98008 9.66593 8.57375 9.2596C8.16742 8.85327 7.61632 8.625 7.04169 8.625H2.70835C2.13372 8.625 1.58262 8.85327 1.17629 9.2596C0.76996 9.66593 0.541687 10.217 0.541687 10.7917V11.875" stroke="#5F8DF8" stroke-width="2" stroke-linecap="round" stroke-linejoin="round"/>
<path d="M8.66669 2.19531C9.13274 2.31464 9.54583 2.58569 9.84082 2.96573C10.1358 3.34577 10.2959 3.81318 10.2959 4.29427C10.2959 4.77536 10.1358 5.24277 9.84082 5.62281C9.54583 6.00285 9.13274 6.2739 8.66669 6.39323" stroke="#5F8DF8" stroke-width="2" stroke-linecap="round" stroke-linejoin="round"/>
<path d="M4.87498 6.45833C6.0716 6.45833 7.04165 5.48828 7.04165 4.29167C7.04165 3.09505 6.0716 2.125 4.87498 2.125C3.67836 2.125 2.70831 3.09505 2.70831 4.29167C2.70831 5.48828 3.67836 6.45833 4.87498 6.45833Z" stroke="#5F8DF8" stroke-width="2" stroke-linecap="round" stroke-linejoin="round"/>
</g>
<defs>
<clipPath id="clip0_206_1818">
<rect width="13" height="13" fill="white" transform="translate(0 0.5)"/>
</clipPath>
</defs>
</svg>
