<svg width="34" height="34" viewBox="0 0 34 34" fill="none" xmlns="http://www.w3.org/2000/svg">
<g clip-path="url(#clip0_32_32153)">
<path d="M28.0897 9.36709L20.2697 1.52584C19.8557 1.09915 19.3603 0.759919 18.8127 0.528265C18.2652 0.296611 17.6767 0.177246 17.0822 0.177246C16.4877 0.177246 15.8992 0.296611 15.3517 0.528265C14.8041 0.759919 14.3087 1.09915 13.8947 1.52584L6.05345 9.36709L17.0397 14.8496L28.0897 9.36709ZM31.0902 12.5333L32.6415 14.0846C33.0708 14.497 33.4124 14.992 33.6458 15.5397C33.8791 16.0875 33.9994 16.6767 33.9994 17.2721C33.9994 17.8675 33.8791 18.4567 33.6458 19.0044C33.4124 19.5522 33.0708 20.0471 32.6415 20.4596L20.145 33.0793C19.8488 33.3823 19.5041 33.6336 19.125 33.823V18.5258L31.0902 12.5333ZM2.90845 12.5333L1.3572 14.0846C0.927846 14.497 0.586245 14.992 0.352898 15.5397C0.11955 16.0875 -0.000732422 16.6767 -0.000732422 17.2721C-0.000732422 17.8675 0.11955 18.4567 0.352898 19.0044C0.586245 19.5522 0.927846 20.0471 1.3572 20.4596L13.855 33.0793C14.1525 33.3824 14.4968 33.6346 14.875 33.823V18.5258L2.90845 12.5333Z" fill="#0FB920"/>
</g>
<defs>
<clipPath id="clip0_32_32153">
<rect width="34" height="34" fill="white"/>
</clipPath>
</defs>
</svg>
