<svg width="23" height="23" viewBox="0 0 23 23" fill="none" xmlns="http://www.w3.org/2000/svg">
<path d="M14.0978 22.25H7.95831C2.40203 22.25 0.0280762 19.876 0.0280762 14.3198V8.18023C0.0280762 2.62395 2.40203 0.25 7.95831 0.25H14.0978C19.6541 0.25 22.0281 2.62395 22.0281 8.18023V14.3198C22.0281 19.876 19.6541 22.25 14.0978 22.25ZM7.95831 1.78488C3.2411 1.78488 1.56296 3.46302 1.56296 8.18023V14.3198C1.56296 19.037 3.2411 20.7151 7.95831 20.7151H14.0978C18.8151 20.7151 20.4932 19.037 20.4932 14.3198V8.18023C20.4932 3.46302 18.8151 1.78488 14.0978 1.78488H7.95831Z" fill="#9197B3"/>
<path d="M18.4466 12.885H16.9117V14.3852H17.449C17.5761 14.3852 17.6792 14.4696 17.6792 14.5728V14.9478C17.6792 15.051 17.5761 15.1354 17.449 15.1354H5.63035C5.50324 15.1354 5.40012 15.051 5.40012 14.9478V14.5728C5.40012 14.4696 5.50324 14.3852 5.63035 14.3852H6.16756V12.885H4.63268C4.20818 12.885 3.86523 13.2202 3.86523 13.6351V15.8855C3.86523 16.3004 4.20818 16.6356 4.63268 16.6356H18.4466C18.8711 16.6356 19.2141 16.3004 19.2141 15.8855V13.6351C19.2141 13.2202 18.8711 12.885 18.4466 12.885ZM16.1443 14.3852V6.89095C16.1443 6.47135 15.7966 6.13379 15.3697 6.13379H7.71204C7.28275 6.13379 6.935 6.47369 6.935 6.89095V14.3852H16.1443ZM8.93035 10.1189L9.54191 9.52579C9.64263 9.42733 9.80571 9.42733 9.90644 9.52813L10.8969 10.5033L13.1801 8.29042C13.2808 8.19196 13.4439 8.19196 13.5446 8.29276L14.1514 8.89052C14.2521 8.98898 14.2521 9.14838 14.149 9.24683L11.072 12.2286C10.9713 12.3271 10.8082 12.3271 10.7075 12.2263L8.93035 10.4752C8.82723 10.3767 8.82962 10.2173 8.93035 10.1189Z" fill="#9197B3"/>
</svg>
