<svg width="22" height="22" viewBox="0 0 22 22" fill="none" xmlns="http://www.w3.org/2000/svg">
<path d="M14 21.75H8C2.57 21.75 0.25 19.43 0.25 14V8C0.25 2.57 2.57 0.25 8 0.25H14C19.43 0.25 21.75 2.57 21.75 8V14C21.75 19.43 19.43 21.75 14 21.75ZM8 1.75C3.39 1.75 1.75 3.39 1.75 8V14C1.75 18.61 3.39 20.25 8 20.25H14C18.61 20.25 20.25 18.61 20.25 14V8C20.25 3.39 18.61 1.75 14 1.75H8Z" fill="#9197B3"/>
<path d="M17.5938 15.1667H6.625V6.45833C6.625 6.2051 6.4432 6 6.21875 6H5.40625C5.1818 6 5 6.2051 5 6.45833V16.0833C5 16.5895 5.36385 17 5.8125 17H17.5938C17.8182 17 18 16.7949 18 16.5417V15.625C18 15.3718 17.8182 15.1667 17.5938 15.1667ZM16.7812 6.91667H13.7836C13.2408 6.91667 12.9688 7.65716 13.3528 8.09029L14.1754 9.01841L12.3125 11.1204L10.4496 9.0187C10.1322 8.66063 9.61779 8.66063 9.30066 9.0187L7.55658 10.9864C7.39789 11.1654 7.39789 11.4556 7.55658 11.6346L8.13092 12.2826C8.28961 12.4616 8.54682 12.4616 8.70551 12.2826L9.875 10.9629L11.7379 13.0646C12.0553 13.4227 12.5697 13.4227 12.8868 13.0646L15.3243 10.3146L16.147 11.2428C16.5309 11.6759 17.1872 11.3691 17.1872 10.7566V7.375C17.1875 7.12177 17.0057 6.91667 16.7812 6.91667Z" fill="#9197B3"/>
</svg>
